<mxfile host="Electron" modified="2023-09-19T22:58:55.415Z" agent="Mozilla/5.0 (Windows NT 10.0; Win64; x64) AppleWebKit/537.36 (KHTML, like Gecko) draw.io/21.7.5 Chrome/114.0.5735.289 Electron/25.8.1 Safari/537.36" etag="vaBoDFglFN3HmeRt7Cuo" version="21.7.5" type="device">
  <diagram name="PÃ¡gina-1" id="5SdrDsKDKhkN9nTzASZr">
    <mxGraphModel dx="1050" dy="629" grid="1" gridSize="10" guides="1" tooltips="1" connect="1" arrows="1" fold="1" page="1" pageScale="1" pageWidth="827" pageHeight="1169" math="0" shadow="0">
      <root>
        <mxCell id="0" />
        <mxCell id="1" parent="0" />
        <mxCell id="7q8VO6ANcTrNtgrSVd8T-11" value="" style="rounded=0;whiteSpace=wrap;html=1;" vertex="1" parent="1">
          <mxGeometry x="20" y="190" width="800" height="150" as="geometry" />
        </mxCell>
        <mxCell id="7q8VO6ANcTrNtgrSVd8T-7" value="" style="edgeStyle=orthogonalEdgeStyle;rounded=0;orthogonalLoop=1;jettySize=auto;html=1;" edge="1" parent="1" source="7q8VO6ANcTrNtgrSVd8T-2" target="7q8VO6ANcTrNtgrSVd8T-3">
          <mxGeometry relative="1" as="geometry" />
        </mxCell>
        <mxCell id="7q8VO6ANcTrNtgrSVd8T-2" value="Target to Test" style="rounded=0;whiteSpace=wrap;html=1;fillColor=#e1d5e7;strokeColor=#9673a6;" vertex="1" parent="1">
          <mxGeometry x="40" y="240" width="120" height="80" as="geometry" />
        </mxCell>
        <mxCell id="7q8VO6ANcTrNtgrSVd8T-8" value="" style="edgeStyle=orthogonalEdgeStyle;rounded=0;orthogonalLoop=1;jettySize=auto;html=1;" edge="1" parent="1" source="7q8VO6ANcTrNtgrSVd8T-3" target="7q8VO6ANcTrNtgrSVd8T-4">
          <mxGeometry relative="1" as="geometry" />
        </mxCell>
        <mxCell id="7q8VO6ANcTrNtgrSVd8T-3" value="Analisys" style="rounded=0;whiteSpace=wrap;html=1;fillColor=#dae8fc;strokeColor=#6c8ebf;" vertex="1" parent="1">
          <mxGeometry x="200" y="240" width="120" height="80" as="geometry" />
        </mxCell>
        <mxCell id="7q8VO6ANcTrNtgrSVd8T-9" value="" style="edgeStyle=orthogonalEdgeStyle;rounded=0;orthogonalLoop=1;jettySize=auto;html=1;" edge="1" parent="1" source="7q8VO6ANcTrNtgrSVd8T-4" target="7q8VO6ANcTrNtgrSVd8T-5">
          <mxGeometry relative="1" as="geometry" />
        </mxCell>
        <mxCell id="7q8VO6ANcTrNtgrSVd8T-4" value="Basic tests" style="rounded=0;whiteSpace=wrap;html=1;fillColor=#fff2cc;strokeColor=#d6b656;" vertex="1" parent="1">
          <mxGeometry x="360" y="240" width="120" height="80" as="geometry" />
        </mxCell>
        <mxCell id="7q8VO6ANcTrNtgrSVd8T-10" value="" style="edgeStyle=orthogonalEdgeStyle;rounded=0;orthogonalLoop=1;jettySize=auto;html=1;" edge="1" parent="1" source="7q8VO6ANcTrNtgrSVd8T-5" target="7q8VO6ANcTrNtgrSVd8T-6">
          <mxGeometry relative="1" as="geometry" />
        </mxCell>
        <mxCell id="7q8VO6ANcTrNtgrSVd8T-5" value="Formal tests" style="rounded=0;whiteSpace=wrap;html=1;fillColor=#ffe6cc;strokeColor=#d79b00;" vertex="1" parent="1">
          <mxGeometry x="520" y="240" width="120" height="80" as="geometry" />
        </mxCell>
        <mxCell id="7q8VO6ANcTrNtgrSVd8T-6" value="Tests report" style="rounded=0;whiteSpace=wrap;html=1;fillColor=#d5e8d4;strokeColor=#82b366;" vertex="1" parent="1">
          <mxGeometry x="680" y="240" width="120" height="80" as="geometry" />
        </mxCell>
        <mxCell id="7q8VO6ANcTrNtgrSVd8T-12" value="Test automation flow" style="rounded=0;whiteSpace=wrap;html=1;" vertex="1" parent="1">
          <mxGeometry x="20" y="190" width="180" height="20" as="geometry" />
        </mxCell>
      </root>
    </mxGraphModel>
  </diagram>
</mxfile>
